<?xml version="1.0" encoding="utf-8"?>
<!-- Generator: Adobe Illustrator 16.0.0, SVG Export Plug-In . SVG Version: 6.00 Build 0)  -->
<!DOCTYPE svg PUBLIC "-//W3C//DTD SVG 1.1//EN" "http://www.w3.org/Graphics/SVG/1.1/DTD/svg11.dtd">
<svg version="1.1" id="Layer_1" xmlns="http://www.w3.org/2000/svg" xmlns:xlink="http://www.w3.org/1999/xlink" x="0px" y="0px"
	 width="1920px" height="1080px" viewBox="0 0 1024 768" enable-background="new 0 0 1920 1080" xml:space="preserve">
 <g>
  <title>background</title>
  <rect fill="#fff" id="canvas_background" height="402" width="582" y="-1" x="-1"/>
  <g display="none" overflow="visible" y="0" x="0" height="100%" width="100%" id="canvasGrid">
   <rect fill="url(#gridpattern)" stroke-width="0" y="0" x="0" height="100%" width="100%"/>
  </g>
 </g>
 <g>
  <title>Layer 1</title>
  <path d="m65,99.450012c3,0 9.029198,0.591225 15,0c5.074203,-0.502449 11.016899,-2.903397 17,-4c5.015472,-0.919258 8.156876,-0.579697 14,-3c4.131714,-1.711411 9.130447,-2.487564 14,-4c7.273041,-2.258934 13,-5 18,-7c5,-2 11.886826,-4.295464 22,-8c8.90799,-3.263069 16.264008,-4.510628 24,-9c6.236954,-3.619446 14.087433,-7.793934 19,-10c2.039825,-0.916019 4,-1 6,-1c0,0 0.229752,0.026752 0,1c-0.513748,2.17625 -3.709229,4.639915 -7,12c-2.581497,5.773727 -4.468063,10.332047 -9,17c-3.599304,5.295753 -9,13 -14,20c-5,7 -10.06868,12.945442 -18,23c-7.061478,8.951843 -14.112137,18.918304 -17,23c-6.247406,8.830063 -8.671219,15.212601 -12,20c-3.655426,5.257172 -8.915863,10.068481 -13,15c-5.880547,7.100647 -10.284157,12.731155 -15,18c-4.270378,4.771149 -6.881905,9.072784 -10,14c-1.928062,3.046722 -3.234634,6.152237 -4,8c-0.541199,1.306564 -2.493462,2.878555 -3,6c-0.320366,1.974182 -1.54705,7.112366 -3,12c-1.534485,5.161911 -3,8 -3,10c0,1 0,1 2,1c4,0 12,-3 18,-5c12,-4 16.783035,-6.406204 24,-10c6.817291,-3.394775 14,-6 24,-11c10,-5 18.824249,-8.448792 26,-11c6.859482,-2.438766 14.076889,-4.731445 18,-6c5.123947,-1.656845 9.920334,-3.167969 14,-5c4.912567,-2.20607 8.041321,-3.847229 12,-5c3.036163,-0.88414 6.852737,-2.173096 8,-3c1.813995,-1.307449 3.076126,-1.61731 4,-2c1.306564,-0.541199 2,-1 2,-1c0,0 -0.902832,-1.224197 -3,-2c-3.867004,-1.430496 -7.087433,-1.79393 -12,-4c-2.039825,-0.916016 -5,-2 -7,-2c-2,0 -3.012909,-0.839813 -4,-1c-3.121445,-0.506546 -4,-2 -5,-2c-2,0 -2.823746,-0.486252 -5,-1c-0.973251,-0.229752 -2,0 -3,0c-2,0 -3,0 -4,0c0,0 0,3 0,5c0,5 0,9 0,14c0,3 0.679642,6.025818 1,8c0.506546,3.121445 0.691238,5.071793 2,10c0.811661,3.056335 1.519455,7.038742 2,10c0.506546,3.121445 1.493454,5.878555 2,9c0.320358,1.974182 -0.488739,5.029968 0,9c0.503769,4.092209 1.496231,7.907791 2,12c0.733093,5.955048 0.496231,9.907776 1,14c0.366547,2.977509 0,6 0,10c0,2 0,4 0,7c0,2 0,5 0,7c0,3 0,5 0,6c0,1 0,3 0,4c0,1 0,3 0,5c0,1 0.765366,3.152252 0,5c-1.082397,2.613129 -1.852737,3.173096 -3,4c-1.813995,1.307465 -2,1 -2,2c0,0 -1,0 -1,0c0,0 -1.796997,1.2565 -3,2c-2.689987,1.662506 -5.310013,2.337494 -8,4c-1.203003,0.7435 -1.693436,2.458801 -3,3c-0.923874,0.38269 -1.693436,0.458801 -3,1c-0.923874,0.38269 -2,0 -2,0c0,0 -1,0 -3,0c-2,0 -4,1 -5,1c-1,0 -3,0 -5,0c-1,0 -4,0 -5,0c-1,0 -2,0 -4,0c-1,0 -2,-1 -3,-1c-1,0 -2,-1 -2,-1c-1,0 -2.152237,-0.234619 -4,-1c-1.306564,-0.541199 -2,-2 -2,-2c-2,-1 -2,-1 -2,-1c0,0 -1,-1 -1,-1c-1,0 -1.934143,-0.144287 -4,-1c-2.92157,-1.210144 -5,-1 -7,-2c-2,-1 -4.026749,-1.770233 -5,-2c-2.176254,-0.513733 -2.026749,-1.770233 -3,-2c-2.176254,-0.513733 -3,-2 -3,-2c-1,0 -1,-1 -2,-1c0,0 0,-1 0,-1c0,0 0,0 0,0c0,-1 0,-1 0,-1c1,0 1,0 1,-1c0,-1 1.486259,-1.823761 2,-4c0.229752,-0.973236 1,-3 2,-5c1,-2 2.835068,-4.113281 7,-10c2.887863,-4.081696 9.112137,-12.918304 12,-17c8.329865,-11.773407 13.189087,-19.868713 18,-27c7.291824,-10.808762 12.131897,-18.902756 18,-27c7.162933,-9.883957 15.748825,-20.363174 25,-32c9.839462,-12.376801 17.675385,-26.225067 24,-35c6.666718,-9.249588 14.439667,-21.436249 20,-28c5.48468,-6.474442 11,-12 17,-18c4,-4 7.726501,-8.293617 12,-12c3.777283,-3.276009 6,-5 9,-8c1,-1 3.823761,-3.486259 6,-4c0.973236,-0.229752 2,0 2,0c1,0 1,0 1,0c0,3 0,7 0,12c0,5 0.488739,12.029968 0,16c-0.503784,4.092216 -3.08075,8.984528 -4,14c-1.096619,5.983093 -3.116882,12.967651 -5,20c-1.066498,3.982788 -1.847229,8.041321 -3,12c-0.884125,3.036163 -2.981628,4.712006 -4,10c-0.567322,2.945862 -2.493469,6.878555 -3,10c-0.48056,2.961258 -1,5 -1,5c0,0 0.292908,0.707108 1,0c0.707092,-0.707108 1.852722,-1.173096 3,-2c1.813995,-1.307449 3,-3 5,-4c2,-1 3.852722,-3.173096 5,-4c1.813995,-1.307449 5,-4 6,-5c0,0 1,-1 1,-1c1,-1 1,-1 2,-2c0,0 0,0 0,-1c0,0 -1,0 -2,-1c-1,-1 -1.693451,-2.458801 -3,-3c-0.923889,-0.38269 -2,0 -3,0c-1,0 -2,0 -2,0c0,0 0,0 0,1c0,0 0,2 0,4c0,2 0,4 0,6c0,2 0.486267,4.823746 1,7c1.148773,4.866241 -0.48056,8.038742 0,11c0.506531,3.121445 1.496216,4.907791 2,9c0.488739,3.970032 1,10 2,16c1,6 3.069824,12.988785 4,19c1.081299,6.9879 2.08075,15.984528 3,21c1.096619,5.983093 1,10 1,14c0,3 0.704376,7.014587 1,10c0.502441,5.074219 1,8 1,11c0,1 1,2 1,2c0,-1 0,-1 0,-1c0,-1 0,-1 0,-1c0,-1 0.173096,-0.852722 1,-2c1.307465,-1.813995 1,-5 2,-8c1,-3 2,-6 3,-9c1,-3 1.486267,-5.823761 2,-8c0.68927,-2.919739 -0.201385,-5.044525 1,-10c1.715271,-7.07515 3.533752,-14.096603 5,-20c2.286835,-9.207092 4.147736,-14.943405 6,-20c1.087677,-2.96933 1.234619,-5.152237 2,-7c0.541199,-1.306564 1,-2 1,-2c0,0 0.458801,-0.693436 1,-2c0.38269,-0.923874 0,-2 0,-2c0,-1 0,-1 0,-1c0,-1 0,-4 0,-7c0,-5 -0.497559,-11.925797 -1,-17c-0.591217,-5.970795 -0.452057,-15.013657 -1,-26c-0.50061,-10.037399 -1,-19 -1,-35c0,-12 0,-25 0,-34c0,-10 -0.800903,-16.06456 0,-21c0.506531,-3.121445 1,-3 1,-3c1,0 1.186005,-0.307453 3,1c2.294525,1.653809 4.194092,4.888557 7,10c2.152039,3.920303 4,11 5,15c1,4 1,7 1,10c0,3 1,6 1,8c0,2 0,4 0,6c0,2 0,3 0,5c0,0 0.458801,-0.306564 1,1c0.38269,0.923882 0,1 0,2c0,0 0,-1 0,-2c0,-1 0,-2 0,-5c0,-4 -0.496216,-7.907784 -1,-12c-0.488739,-3.970032 -1,-6 -1,-8c0,-2 0,-6 0,-8c0,-4 0,-7 0,-12c0,-3 1,-5 2,-7c1,-2 2.902832,-4.224205 5,-5c3.867004,-1.430496 7.954681,-3.19088 16,-5c9.949585,-2.237328 15.973236,-3.499683 30,-4c8.994293,-0.320816 15,0 21,0c4,0 8,0 10,1c2,1 4.513,2.593998 6,5c1.662506,2.689995 2.533752,8.096603 4,14c1.524536,6.138062 2.496216,8.907784 3,13c0.488739,3.970032 0,8 0,13c0,5 0,9 0,12c0,2 0.707092,2.292892 0,3c-1.414215,1.414215 -5.038727,0.519455 -8,1c-3.121429,0.506538 -5,2 -15,2c-6,0 -11,0 -16,0c-2,0 -5,0 -9,0c-2,0 -4,0 -6,-1c-2,-1 -4.07843,-1.789848 -7,-3c-2.065857,-0.855705 -5.705475,-3.346191 -8,-5c-1.813995,-1.307449 -2.692535,-2.186005 -4,-4c-0.826904,-1.14727 -2,-3 -2,-4c0,-1 0,-1 0,-2c0,0 0.868286,-0.288589 5,-2c2.92157,-1.210152 7.809021,-3.321442 11,-5c4.765991,-2.507057 7.823761,-3.486259 10,-4c2.919739,-0.689262 6,0 8,0c2,0 4,0 6,0c1,0 3,0 3,0c1,0 1,0 1,0c1,1 2,2 2,2c1,1 1,1 2,2c0,0 0,1 1,2c0,0 0,1 0,1c0,1 0,2 0,4c0,2 0.430481,4.133003 -1,8c-0.775787,2.097176 -1.917542,5.056648 -4,8c-2.887848,4.081696 -5.413605,6.625313 -9,11c-2.285889,2.788322 -5,5 -8,8c-2,2 -4.186005,3.692551 -6,5c-2.294525,1.653809 -4,4 -5,5c0,0 -2,2 -1,2c1,0 1.026764,-0.770248 2,-1c2.176239,-0.513748 4.132996,-1.569504 8,-3c2.097168,-0.775803 5,-3 6,-3c1,0 0.693451,-0.458801 2,-1c1.847748,-0.765366 3.823761,-1.486252 6,-2c1.946503,-0.459503 4.152252,-0.234634 6,-1c1.306549,-0.541199 1,-1 2,-1c0,0 0,0 1,0c0,0 0,0 0,0c1,0 1,0 2,0c1,0 1,0 1,0c1,0 2.149353,-0.525734 3,0c1.9021,1.175568 2.51944,3.038742 3,6c0.506531,3.121445 1,6 1,8c0,4 0.276001,7.222733 -3,11c-1.85318,2.136749 -5.22937,4.331985 -9,6c-3.297333,1.458633 -5,3 -7,3c-3,0 -5.038727,0.480545 -8,0c-3.121429,-0.506546 -6.543579,-3.402145 -11,-8c-3.479889,-3.590332 -4.75531,-8.132004 -7,-12c-1.809723,-3.118484 -3.496216,-5.907791 -4,-10c-0.366547,-2.977524 0,-7 0,-11c0,-4 0,-8 0,-12c0,-8 2.561218,-18.140526 5,-25c2.551208,-7.175743 4.789856,-13.078438 6,-16c0.855713,-2.065857 1,-2 1,-2c1,0 1,0 2,0c1,0 1,0 3,0c1,0 2.052704,1.98719 3,6c2.118225,8.972916 3.990234,17.79026 5,25c1.387024,9.903343 1.498749,17.946724 2,25c0.354431,4.987419 1,14 1,20c0,10 0,20 0,27c0,10 0,17 0,23c0,4 0,8 0,11c0,3 0.459503,6.053497 0,8c-0.513733,2.176254 -0.61731,2.076126 -1,3c-0.541199,1.306564 -2.21167,1.714127 -5,4c-2.187347,1.793198 -4.549164,4.95517 -8,6c-1.914185,0.579575 -4.934143,2.144287 -7,3c-2.92157,1.210144 -5.186005,1.692551 -7,3c-1.147278,0.826904 -3,1 -4,1c-1,0 -2,0 -3,0c-1,0 -1,0 -2,-1c0,0 0,-1 0,-1c0,0 0,-1 0,-3c0,0 0,0 0,-1c0,0 0.692535,-2.186005 2,-4c1.653809,-2.29454 4.06601,-3.877655 6,-5c3.118469,-1.809723 7.957123,-3.245407 13,-4c9.939209,-1.487244 18,-1 26,-1c15,0 26,0 34,0c14,0 19,0 25,0c2,0 5,0 7,0c1,0 2,0 3,0c1,0 3,-1 6,-1c4,0 7,-1 8,-1c0,0 0,0 1,0c0,0 0,0 1,0c2,0 5,0 6,0l0,0l1,0l0,0" id="svg_2" stroke-width="1.5" stroke="#000" fill="none"/>
 </g>
</svg>